<svg viewBox="1 1 511.99998 511.99998" xmlns="http://www.w3.org/2000/svg"><path d="m512 256c0 141.386719-114.613281 256-256 256s-256-114.613281-256-256 114.613281-256 256-256 256 114.613281 256 256zm0 0" fill="#5a9ed1"/><path d="m470.714844 34.136719v361.316406c-6.339844 9.738281-13.320313 19.027344-20.898438 27.792969-46.945312 54.355468-116.359375 88.753906-193.816406 88.753906s-146.871094-34.398438-193.816406-88.753906c-7.578125-8.765625-14.558594-18.054688-20.898438-27.792969v-361.316406c0-18.851563 15.285156-34.136719 34.136719-34.136719h361.15625c18.851563 0 34.136719 15.285156 34.136719 34.136719zm0 0" fill="#ededed"/><path d="m449.820312 116.085938v307.160156c-6.539062 7.574218-13.519531 14.761718-20.898437 21.523437-45.554687 41.753907-106.253906 67.230469-172.917969 67.230469-18.453125 0-36.457031-1.953125-53.800781-5.675781-7.453125-1.578125-14.765625-3.5-21.957031-5.726563-36.570313-11.304687-69.628906-30.59375-97.164063-55.828125-7.375-6.761719-14.355469-13.949219-20.898437-21.523437v-389.109375c0-7.304688 5.9375-13.238281 13.242187-13.238281h279.207031zm0 0" fill="#ff4f9b"/><path d="m423.71875 89.984375h-361.535156v-55.847656c0-7.304688 5.9375-13.238281 13.242187-13.238281h279.207031zm0 0" fill="#583377"/><g fill="#fff"><path d="m115.984375 55.441406c0 10.003906-8.109375 18.113282-18.113281 18.113282-10 0-18.109375-8.109376-18.109375-18.113282 0-10 8.109375-18.109375 18.109375-18.109375 10.003906 0 18.113281 8.109375 18.113281 18.109375zm0 0"/><path d="m162.109375 55.441406c0 10.003906-8.109375 18.113282-18.109375 18.113282-10.003906 0-18.113281-8.109376-18.113281-18.113282 0-10 8.109375-18.109375 18.113281-18.109375 10 0 18.109375 8.109375 18.109375 18.109375zm0 0"/><path d="m208.238281 55.441406c0 10.003906-8.109375 18.113282-18.113281 18.113282s-18.109375-8.109376-18.109375-18.113282c0-10 8.105469-18.109375 18.109375-18.109375s18.113281 8.109375 18.113281 18.109375zm0 0"/></g><path d="m449.820312 116.085938h-81.949218c-7.304688 0-13.238282-5.933594-13.238282-13.238282v-81.949218zm0 0" fill="#d6d6d6"/><path d="m370.40625 286.023438-45.4375-45.4375 45.4375-45.4375-18.839844-18.835938-45.4375 45.4375-18.839844 18.835938 64.277344 64.277343zm0 0" fill="#442463"/><path d="m141.597656 195.148438 45.4375 45.4375-45.4375 45.4375 18.839844 18.839843 64.277344-64.277343-18.839844-18.835938-45.4375-45.4375zm0 0" fill="#442463"/><path d="m342.863281 404.375h-32.234375c0-33.019531-26.769531-59.789062-59.789062-59.789062-33.019532 0-59.777344 26.769531-59.777344 59.789062h-32.234375c0-50.816406 41.199219-92.023438 92.011719-92.023438 50.828125 0 92.023437 41.207032 92.023437 92.023438zm0 0" fill="#442463"/></svg>