<?xml version="1.0" encoding="iso-8859-1"?>
<!-- Generator: Adobe Illustrator 19.0.0, SVG Export Plug-In . SVG Version: 6.00 Build 0)  -->
<svg version="1.1" id="Layer_1" xmlns="http://www.w3.org/2000/svg" xmlns:xlink="http://www.w3.org/1999/xlink" x="0px" y="0px"
	 viewBox="0 0 512 512" style="enable-background:new 0 0 512 512;" xml:space="preserve">
<path style="fill:#334F55;" d="M467.862,384V238.345c0-90.052-73.284-163.31-163.362-163.31h-97
	c-90.078,0-163.362,73.259-163.362,163.31V384H0v17.655h52.966h17.655h35.754c2.22,19.805,18.88,35.31,39.28,35.31
	s37.06-15.505,39.28-35.31h142.129c2.22,19.805,18.88,35.31,39.28,35.31c20.4,0,37.06-15.505,39.28-35.31h35.755h17.655H512V384
	H467.862z"/>
<path style="fill:#E6D764;" d="M441.379,384h-35.31v-52.966h-17.655V384v13.263c0,12.155-9.897,22.047-22.069,22.047
	c-12.172,0-22.069-9.892-22.069-22.047V384v-52.966h-17.655V384H185.379v-52.966h-17.655V384v13.263
	c0,12.155-9.897,22.047-22.069,22.047s-22.069-9.892-22.069-22.047V384v-52.966h-17.655V384h-35.31h-8.828V238.345
	c0-80.315,65.362-145.655,145.707-145.655h97c80.345,0,145.707,65.34,145.707,145.655V384H441.379z"/>
<g>
	<path style="fill:#334F55;" d="M200.448,183.552c-3.448-3.448-9.035-3.448-12.483,0l-15.828,15.828l-15.828-15.828
		c-3.448-3.448-9.035-3.448-12.483,0s-3.448,9.035,0,12.483l15.828,15.828l-15.828,15.828c-3.448,3.448-3.448,9.035,0,12.483
		c1.724,1.724,3.983,2.586,6.241,2.586c2.259,0,4.517-0.862,6.241-2.586l15.828-15.828l15.828,15.828
		c1.724,1.724,3.983,2.586,6.241,2.586c2.259,0,4.517-0.862,6.241-2.586c3.448-3.448,3.448-9.035,0-12.483l-15.828-15.828
		l15.828-15.828C203.896,192.586,203.896,187,200.448,183.552z"/>
	<path style="fill:#334F55;" d="M368.172,183.552c-3.448-3.448-9.035-3.448-12.483,0l-15.828,15.828l-15.828-15.828
		c-3.448-3.448-9.035-3.448-12.483,0c-3.448,3.448-3.448,9.035,0,12.483l15.828,15.828l-15.828,15.828
		c-3.448,3.448-3.448,9.035,0,12.483c1.724,1.724,3.983,2.586,6.241,2.586c2.259,0,4.517-0.862,6.241-2.586l15.828-15.828
		l15.828,15.828c1.724,1.724,3.983,2.586,6.241,2.586s4.517-0.862,6.241-2.586c3.448-3.448,3.448-9.035,0-12.483l-15.828-15.828
		l15.828-15.828C371.621,192.586,371.621,187,368.172,183.552z"/>
</g>
<g>
</g>
<g>
</g>
<g>
</g>
<g>
</g>
<g>
</g>
<g>
</g>
<g>
</g>
<g>
</g>
<g>
</g>
<g>
</g>
<g>
</g>
<g>
</g>
<g>
</g>
<g>
</g>
<g>
</g>
</svg>
